<mxfile host="app.diagrams.net" modified="2023-10-30T23:49:39.233Z" agent="Mozilla/5.0 (Macintosh; Intel Mac OS X 10_15_7) AppleWebKit/537.36 (KHTML, like Gecko) Chrome/118.0.0.0 Safari/537.36" version="22.0.8" etag="bC_BBI6zCupgwV3yRbea" type="github">
  <diagram name="페이지-1" id="cX7erf8BxX3n9yNCefGl">
    <mxGraphModel>
      <root>
        <mxCell id="0" />
        <mxCell id="1" parent="0" />
      </root>
    </mxGraphModel>
  </diagram>
</mxfile>
